<?xml version="1.0" encoding="UTF-8" standalone="no"?>
<!-- Created with Inkscape (http://www.inkscape.org/) -->

<svg
   width="954.13837mm"
   height="180.63116mm"
   viewBox="0 0 954.13837 180.63116"
   version="1.1"
   id="svg3705"
   inkscape:version="1.1 (c68e22c387, 2021-05-23)"
   sodipodi:docname="forum_staff_2.svg"
   style="enable-background:new"
   inkscape:export-filename="F:\Projects\Softworkz_Emby\Emby.Resources\images\emby_team\out\forum_staff_95.png"
   inkscape:export-xdpi="2.5289834"
   inkscape:export-ydpi="2.5289834"
   xmlns:inkscape="http://www.inkscape.org/namespaces/inkscape"
   xmlns:sodipodi="http://sodipodi.sourceforge.net/DTD/sodipodi-0.dtd"
   xmlns="http://www.w3.org/2000/svg"
   xmlns:svg="http://www.w3.org/2000/svg"
   xmlns:rdf="http://www.w3.org/1999/02/22-rdf-syntax-ns#"
   xmlns:cc="http://creativecommons.org/ns#"
   xmlns:dc="http://purl.org/dc/elements/1.1/">
  <defs
     id="defs3699">
    <meshgradient
       inkscape:collect="always"
       id="meshgradient21746"
       gradientUnits="userSpaceOnUse"
       x="546.67383"
       y="72.320831">
      <meshrow
         id="meshrow21748">
        <meshpatch
           id="meshpatch21750">
          <stop
             path="c 26.5455,0  53.0909,0  79.6364,0"
             style="stop-color:#989898;stop-opacity:1"
             id="stop21752" />
          <stop
             path="c 0,31.4775  0,62.9551  0,94.4326"
             style="stop-color:#323232;stop-opacity:1"
             id="stop21754" />
          <stop
             path="c -26.5455,0  -53.0909,0  -79.6364,0"
             style="stop-color:#929292;stop-opacity:1"
             id="stop21756" />
          <stop
             path="c 0,-31.4775  0,-62.9551  0,-94.4326"
             style="stop-color:#545454;stop-opacity:1"
             id="stop21758" />
        </meshpatch>
      </meshrow>
    </meshgradient>
    <meshgradient
       inkscape:collect="always"
       id="meshgradient21760"
       gradientUnits="userSpaceOnUse"
       x="625.68945"
       y="49.978516">
      <meshrow
         id="meshrow21762">
        <meshpatch
           id="meshpatch21764">
          <stop
             path="c 53.6341,0  107.268,0  160.902,0"
             style="stop-color:#989898;stop-opacity:1"
             id="stop21766" />
          <stop
             path="c 0,38.8056  0,77.6111  0,116.417"
             style="stop-color:#434343;stop-opacity:1"
             id="stop21768" />
          <stop
             path="c -53.6341,0  -107.268,0  -160.902,0"
             style="stop-color:#8f8f8f;stop-opacity:1"
             id="stop21770" />
          <stop
             path="c 0,-38.8056  0,-77.6111  0,-116.417"
             style="stop-color:#4d4d4d;stop-opacity:1"
             id="stop21772" />
        </meshpatch>
      </meshrow>
    </meshgradient>
    <meshgradient
       inkscape:collect="always"
       id="meshgradient21774"
       gradientUnits="userSpaceOnUse"
       x="863.79102"
       y="35.778744">
      <meshrow
         id="meshrow21776">
        <meshpatch
           id="meshpatch21778">
          <stop
             path="c 24.6432,0  49.2865,0  73.9297,0"
             style="stop-color:#8c8c8c;stop-opacity:1"
             id="stop21780" />
          <stop
             path="c 0,42.6512  0,85.3025  0,127.954"
             style="stop-color:#464646;stop-opacity:1"
             id="stop21782" />
          <stop
             path="c -24.6432,0  -49.2865,0  -73.9297,0"
             style="stop-color:#aaaaaa;stop-opacity:1"
             id="stop21784" />
          <stop
             path="c 0,-42.6512  0,-85.3025  0,-127.954"
             style="stop-color:#474747;stop-opacity:1"
             id="stop21786" />
        </meshpatch>
      </meshrow>
    </meshgradient>
    <meshgradient
       inkscape:collect="always"
       id="meshgradient21788"
       gradientUnits="userSpaceOnUse"
       x="791.96875"
       y="35.778812">
      <meshrow
         id="meshrow29169">
        <meshpatch
           id="meshpatch29171">
          <stop
             path="c 24.6426,0  65.2812,-6.67465  73.9277,0"
             style="stop-color:#9d9d9d;stop-opacity:1"
             id="stop29173" />
          <stop
             path="c 12.5202,30.367  0,85.3024  0,127.954"
             style="stop-color:#393939;stop-opacity:1"
             id="stop29175" />
          <stop
             path="c -24.6426,0  -49.2852,0  -73.9277,0"
             style="stop-color:#a5a5a5;stop-opacity:1"
             id="stop29177" />
          <stop
             path="c 0,-42.6512  0,-85.3024  0,-127.954"
             style="stop-color:#444444;stop-opacity:1"
             id="stop29179" />
        </meshpatch>
      </meshrow>
    </meshgradient>
    <meshgradient
       inkscape:collect="always"
       id="meshgradient21889"
       gradientUnits="userSpaceOnUse"
       x="14.525346"
       y="31.382975">
      <meshrow
         id="meshrow24865">
        <meshpatch
           id="meshpatch24867">
          <stop
             path="c 112.475,-41.9663  315.31,0  472.966,0"
             style="stop-color:#a0a0a0;stop-opacity:1"
             id="stop24869" />
          <stop
             path="c 31.092,32.117  20.5087,106.2  0,129.915"
             style="stop-color:#3a3a3a;stop-opacity:1"
             id="stop24871" />
          <stop
             path="c -138.241,29.202  -349.908,29.202  -472.966,0"
             style="stop-color:#a1a1a1;stop-opacity:1"
             id="stop24873" />
          <stop
             path="c 0,-43.305  0,-86.6101  0,-129.915"
             style="stop-color:#535353;stop-opacity:1"
             id="stop24875" />
        </meshpatch>
      </meshrow>
    </meshgradient>
  </defs>
  <sodipodi:namedview
     id="base"
     pagecolor="#ffffff"
     bordercolor="#666666"
     borderopacity="1.0"
     inkscape:pageopacity="0.0"
     inkscape:pageshadow="2"
     inkscape:zoom="0.39875279"
     inkscape:cx="1453.2814"
     inkscape:cy="741.06065"
     inkscape:document-units="mm"
     inkscape:current-layer="layer4"
     showgrid="true"
     inkscape:snap-page="false"
     showguides="true"
     inkscape:measure-start="145,555"
     inkscape:measure-end="345,755"
     inkscape:window-width="1600"
     inkscape:window-height="1129"
     inkscape:window-x="1592"
     inkscape:window-y="-8"
     inkscape:window-maximized="1"
     fit-margin-top="10"
     fit-margin-left="15"
     fit-margin-right="15"
     fit-margin-bottom="10"
     inkscape:pagecheckerboard="0"
     inkscape:snap-global="true"
     lock-margins="false">
    <inkscape:grid
       type="xygrid"
       id="grid3719"
       originx="-4.8659835"
       originy="-11.914327" />
  </sodipodi:namedview>
  <metadata
     id="metadata3702">
    <rdf:RDF>
      <cc:Work
         rdf:about="">
        <dc:format>image/svg+xml</dc:format>
        <dc:type
           rdf:resource="http://purl.org/dc/dcmitype/StillImage" />
      </cc:Work>
    </rdf:RDF>
  </metadata>
  <g
     inkscape:label="Squares"
     inkscape:groupmode="layer"
     id="layer1"
     style="display:inline;opacity:1"
     transform="translate(-4.8659832,-108.91431)" />
  <g
     inkscape:groupmode="layer"
     id="layer3"
     inkscape:label="Triangle"
     transform="translate(-4.8659832,-11.914321)" />
  <g
     inkscape:groupmode="layer"
     id="layer4"
     inkscape:label="Text"
     transform="translate(-4.8659832,-11.914321)">
    <path
       style="font-style:normal;font-weight:normal;font-size:178.222px;line-height:1.25;font-family:sans-serif;letter-spacing:0px;word-spacing:0px;opacity:1;mix-blend-mode:normal;fill:url(#meshgradient21746);fill-opacity:1;stroke:none;stroke-width:4.45556;fill-rule:nonzero"
       d="m 585.93164,72.335938 c -7.88168,0.263565 -15.86226,1.956125 -22.77665,5.855988 -5.27284,2.960177 -9.78167,7.578083 -11.82687,13.345183 -1.8048,5.089147 -1.93353,10.746471 -0.51005,15.943851 1.46401,5.35162 5.13564,9.91489 9.72992,12.94508 6.12191,4.07007 13.38899,6.01313 20.59366,7.05569 4.75281,0.74958 9.64285,0.61587 14.27309,1.65071 2.69634,0.62668 5.86604,1.56809 7.41067,4.1408 1.5435,2.77411 0.93815,6.4658 -1.23636,8.73942 -3.01339,3.26843 -7.66082,4.60614 -11.92764,4.78608 -5.37645,0.11037 -10.67089,-1.1285 -15.713,-2.85831 -5.2374,-1.88904 -10.40172,-4.37804 -14.49916,-8.2182 -0.51272,-0.48105 -0.97537,-1.01116 -1.46097,-1.51911 -3.77297,5.46773 -7.54422,10.93664 -11.31445,16.40626 5.26307,5.56026 11.66433,10.13477 18.89194,12.75297 8.08103,2.992 16.81977,3.60184 25.36766,3.33447 8.18987,-0.35267 16.56298,-2.24611 23.40914,-6.93564 5.57892,-3.7611 9.80185,-9.59101 11.26457,-16.19247 1.07372,-4.7646 0.88365,-9.79304 -0.33857,-14.5099 -1.3424,-5.17214 -4.5901,-9.79688 -8.98553,-12.83187 -5.75124,-4.02863 -12.74328,-5.75137 -19.60184,-6.72477 -3.79399,-0.57126 -7.66598,-0.71473 -11.45464,-1.09201 -1.96913,-0.24083 -4.02125,-0.59124 -5.87807,-1.17788 -2.68492,-0.82856 -5.56027,-2.31158 -6.60377,-5.09747 -0.94973,-2.499491 -0.3888,-5.601521 1.72403,-7.345748 2.77839,-2.342342 6.52577,-2.980876 10.03939,-3.291968 5.61365,-0.373422 11.52374,0.05708 16.78092,2.319312 3.05131,1.298809 5.90342,3.296033 8.31446,5.63086 4.27072,-5.027241 8.54285,-10.053293 12.8164,-15.078125 -5.10897,-4.584469 -11.16369,-8.19243 -17.8092,-10.013418 -6.05988,-1.710183 -12.40801,-2.124432 -18.67908,-2.019785 z"
       id="path21618" />
    <path
       id="path21616"
       style="font-style:normal;font-weight:normal;font-size:178.222px;line-height:1.25;font-family:sans-serif;letter-spacing:0px;word-spacing:0px;opacity:1;mix-blend-mode:normal;fill:url(#meshgradient21760);fill-opacity:1;stroke:none;stroke-width:4.45556;fill-rule:nonzero"
       d="m 664.30273,50.041016 c -7.40565,0.787913 -14.81088,1.579831 -22.21679,2.365234 0,7.527344 0,15.054687 0,22.582031 -5.4655,0 -10.93099,0 -16.39649,0 0,6.590495 0,13.18099 0,19.771485 5.4655,0 10.93099,0 16.39649,0 0.0138,12.954834 -0.0276,25.910184 0.0206,38.864694 0.17133,7.12895 1.77009,14.4887 6.04403,20.33385 3.56244,4.96575 9.05034,8.3558 14.95159,9.78628 5.70203,1.43049 11.67935,1.28689 17.47077,0.53345 4.21721,-0.5776 8.30997,-1.84305 12.24733,-3.4382 -2.13348,-6.52906 -4.26788,-13.05783 -6.40429,-19.58593 -3.68108,1.87589 -7.93887,3.11205 -12.02149,2.83789 -3.11428,-0.18084 -6.25408,-1.70036 -7.8748,-4.44495 -1.75627,-2.81718 -1.88852,-6.24398 -1.81075,-9.46521 0,-11.80729 0,-23.61458 0,-35.421874 8.13933,0 16.27865,0 24.41797,0 0,-6.590495 0,-13.18099 0,-19.771485 -8.07942,0 -16.15885,0 -24.23828,0 0,-8.336588 0,-16.673177 0,-25.009765 -0.19531,0.02083 -0.39062,0.04167 -0.58594,0.0625 z m 71.01368,22.632812 c -9.68119,0.103549 -19.52438,2.62514 -27.48692,8.275282 -6.8911,4.829414 -12.03852,11.964529 -14.75067,19.90662 -2.97665,8.59223 -3.44954,17.89708 -2.36432,26.87564 1.10287,8.87593 4.3599,17.66101 10.28941,24.46004 5.5856,6.48661 13.40083,10.83281 21.69614,12.76166 4.9687,1.16387 10.11255,1.65137 15.21011,1.35943 7.17484,-0.61535 14.28303,-3.04356 20.0664,-7.38672 2.42295,-1.86178 4.57501,-4.11354 6.14063,-6.74805 0.32113,3.85155 0.64091,7.70321 0.96289,11.55469 7.17057,0 14.34114,0 21.51172,0 0,-29.64127 0,-59.28255 0,-88.923826 -7.29297,0 -14.58594,0 -21.87891,0 -0.2149,3.655596 -0.42968,7.311198 -0.64453,10.966797 -4.12482,-6.083172 -10.83955,-10.005612 -17.84897,-11.854332 -3.55165,-0.93902 -7.23308,-1.323407 -10.90298,-1.247231 z m 3.16601,20.482422 c 5.97128,-0.05002 12.07762,1.821146 16.57528,5.84255 5.08771,4.45775 7.92576,11.12434 8.45597,17.82932 0.13636,1.77333 0.13038,3.80748 -0.0702,5.58124 -0.72609,7.37424 -4.34859,14.62325 -10.55931,18.82106 -5.76964,3.95725 -13.20234,4.90215 -19.97921,3.61925 -6.25765,-1.15635 -12.08374,-4.79172 -15.58465,-10.14655 -1.42788,-2.14848 -2.53127,-4.60889 -3.21779,-7.08083 -1.50726,-5.51861 -1.50078,-11.46051 0.0283,-16.97385 0.60208,-2.11324 1.57736,-4.37913 2.73844,-6.22964 2.74164,-4.470727 7.01966,-7.845834 11.92609,-9.609827 3.04383,-1.111674 6.40872,-1.654244 9.68703,-1.652723 z" />
    <path
       style="font-style:normal;font-weight:normal;font-size:178.222px;line-height:1.25;font-family:sans-serif;letter-spacing:0px;word-spacing:0px;opacity:1;mix-blend-mode:normal;fill:url(#meshgradient21774);fill-opacity:1;stroke:none;stroke-width:4.45556;fill-rule:nonzero"
       d="m 913.39062,35.787109 c -8.12204,0.130757 -16.39986,2.713617 -22.53003,8.180704 -5.45496,4.774804 -8.80534,11.620632 -9.99935,18.710655 -0.83445,4.409784 -0.6625,8.913604 -0.67374,13.378173 -5.46549,0 -10.93099,0 -16.39648,0 0,6.709635 0,13.41927 0,20.128906 5.46549,0 10.93099,0 16.39648,0 0,22.515623 0,45.031253 0,67.546873 7.60091,0 15.20182,0 22.80273,0 0,-22.51562 0,-45.03125 0,-67.546873 8.61394,0 17.22787,0 25.8418,0 0,-6.709636 0,-13.419271 0,-20.128906 -8.61393,0 -17.22786,0 -25.8418,0 0.0658,-4.218709 -0.37405,-8.595612 1.1523,-12.629163 1.1671,-3.409651 3.9193,-6.309561 7.43069,-7.294766 4.68741,-1.384503 9.74964,-0.147763 13.96679,2.087877 1.27395,0.65522 2.48514,1.422348 3.68851,2.19738 2.83027,-5.725485 5.66395,-11.449292 8.49218,-17.175781 -7.17896,-4.7261 -15.67873,-7.64066 -24.33008,-7.455079 z"
       id="path21614" />
    <path
       style="font-style:normal;font-weight:normal;font-size:178.222px;line-height:1.25;font-family:sans-serif;letter-spacing:0px;word-spacing:0px;opacity:1;mix-blend-mode:normal;fill:url(#meshgradient21788);fill-opacity:1;stroke:none;stroke-width:4.45556;fill-rule:nonzero"
       d="m 841.56836,35.787109 c -8.0883,0.130344 -16.33251,2.691327 -22.45384,8.113712 -5.37844,4.669508 -8.73123,11.354961 -9.99291,18.308088 -0.9141,4.558233 -0.75671,9.224973 -0.75833,13.847732 -5.46484,0 -10.92969,0 -16.39453,0 0,6.709635 0,13.41927 0,20.128906 5.46484,0 10.92969,0 16.39453,0 0,22.515623 0,45.031253 0,67.546873 7.60091,0 15.20182,0 22.80274,0 0,-22.51562 0,-45.03125 0,-67.546873 8.61393,0 17.22786,0 25.84179,0 0,-6.709636 0,-13.419271 0,-20.128906 -8.61393,0 -17.22786,0 -25.84179,0 0.065,-4.219601 -0.37126,-8.59361 1.15229,-12.629163 1.15926,-3.375813 3.86395,-6.259198 7.33524,-7.264956 4.60365,-1.401971 9.59934,-0.244133 13.77889,1.909853 1.37399,0.693875 2.68032,1.5106 3.97186,2.345594 2.83053,-5.724709 5.6624,-11.448752 8.49218,-17.173828 -7.17572,-4.729158 -15.67853,-7.641742 -24.32812,-7.457032 z"
       id="path21612" />
    <path
       id="text929"
       style="font-style:normal;font-weight:normal;font-size:178.222px;line-height:1.25;font-family:sans-serif;letter-spacing:0px;word-spacing:0px;opacity:1;mix-blend-mode:normal;fill:url(#meshgradient21889);fill-opacity:1;fill-rule:nonzero;stroke:none;stroke-width:4.45556"
       d="m 64.126908,31.39127 c -8.088298,0.130344 -16.332511,2.691327 -22.45384,8.113712 -5.378441,4.669508 -8.731227,11.354961 -9.992907,18.308088 -0.914889,4.558171 -0.756124,9.225052 -0.758331,13.847732 -5.465495,0 -10.93099,0 -16.396484,0 0,6.709635 0,13.41927 0,20.128906 5.465494,0 10.930989,0 16.396484,0 0,22.515622 0,45.031252 0,67.546872 7.600911,0 15.201823,0 22.802734,0 0,-22.51562 0,-45.03125 0,-67.546872 8.613933,0 17.227865,0 25.841797,0 0,-6.709636 0,-13.419271 0,-20.128906 -8.613932,0 -17.227864,0 -25.841797,0 0.06499,-4.219601 -0.371252,-8.59361 1.152294,-12.629163 1.158233,-3.376125 3.864759,-6.259176 7.335238,-7.264956 4.603635,-1.401937 9.599345,-0.244055 13.778896,1.909853 1.373983,0.693875 2.680318,1.5106 3.971854,2.345594 C 82.793374,50.297421 85.62525,44.573378 88.455033,38.848302 81.27931,34.119144 72.776497,31.20656 64.126908,31.39127 Z M 223.37691,68.117833 c -5.42685,0.100905 -11.01847,1.167067 -15.58835,4.24496 -2.87345,1.899965 -5.27381,4.454629 -7.19681,7.299962 -0.48625,-3.083346 -0.97313,-6.166592 -1.45898,-9.25 -7.04037,0 -14.08073,0 -21.1211,0 0,29.641275 0,59.282555 0,88.923825 7.60026,0 15.20052,0 22.80079,0 0.0118,-15.97162 -0.0235,-31.94379 0.0176,-47.91507 0.10545,-4.94038 1.45469,-10.21565 4.7441,-14.012659 3.19189,-3.795381 8.0898,-5.879827 12.87547,-6.449727 4.83195,-0.552193 9.97218,-0.252861 14.34523,2.056862 1.91154,0.991441 3.61672,2.323594 5.26368,3.699505 3.4254,-6.606992 6.85405,-13.212303 10.28125,-19.818361 -4.41771,-4.437828 -10.42392,-6.975848 -16.49805,-8.160157 -2.78715,-0.533873 -5.63017,-0.710721 -8.46484,-0.61914 z M 122.91402,68.64713 c -9.36666,0.181872 -18.79492,2.918536 -26.40739,8.470646 -8.027832,5.764958 -13.767181,14.446721 -16.383803,23.938804 -2.591299,9.35529 -2.491801,19.44148 0.218925,28.75852 2.639291,9.05458 8.151035,17.32649 15.821038,22.87728 7.6474,5.62663 17.15325,8.34979 26.58072,8.5788 9.70739,0.29834 19.65395,-1.86877 27.88158,-7.16375 8.06496,-5.09836 14.14905,-13.08513 17.27211,-22.07043 3.19188,-9.16194 3.6911,-19.24023 1.51055,-28.68816 -2.29325,-9.935937 -7.94734,-19.136237 -16.08557,-25.338071 -7.78146,-6.027136 -17.60175,-9.100057 -27.38769,-9.350062 -1.00644,-0.03503 -2.0137,-0.03111 -3.02047,-0.01358 z m 1.48828,20.826172 c 3.48489,-0.01439 7.08549,0.799934 10.20312,2.425781 4.7036,2.392122 8.43123,6.674668 10.59766,11.396487 3.38777,7.32256 3.33982,16.05655 0.2125,23.45626 -2.16139,5.12066 -6.20434,9.5065 -11.3707,11.66483 -1.54589,0.65705 -3.28561,1.16997 -4.92279,1.45438 -3.51564,0.60716 -7.11836,0.54216 -10.575,-0.2311 -4.16989,-0.91588 -8.24432,-3.21023 -11.14808,-6.52702 -2.4973,-2.80681 -4.1834,-6.14959 -5.22327,-9.78024 -0.98226,-3.51346 -1.29744,-7.21284 -1.03321,-10.78125 0.50353,-6.67251 3.31834,-13.534549 8.55742,-17.959767 3.31602,-2.832653 7.45941,-4.497604 11.73791,-4.954812 1.00642,-0.113321 1.94912,-0.161128 2.96444,-0.163549 z M 393.48824,68.819005 c -6.67941,0.180969 -13.55716,2.217286 -18.55694,6.804591 -1.35836,1.248693 -2.55143,2.681503 -3.51728,4.254003 -0.48263,-3.214162 -0.96354,-6.428582 -1.44727,-9.642579 -7.04101,0 -14.08203,0 -21.12305,0 10e-6,29.700521 0,59.40104 0,89.10156 7.60027,0 15.20053,0 22.80079,0 0.0122,-16.1599 -0.0244,-32.3203 0.0183,-48.47989 0.18991,-6.12746 2.42072,-12.452109 7.10284,-16.581207 4.56567,-4.115085 11.47258,-5.161004 17.16559,-2.998167 4.56707,1.71354 7.89677,5.769915 9.57259,10.254494 1.53456,3.91427 1.90635,8.16339 1.7969,12.33446 0,15.15677 0,30.31354 0,45.47031 7.60026,0 15.20052,0 22.80078,0 0.012,-16.1599 -0.024,-32.32029 0.018,-48.4799 0.17629,-6.11813 2.64339,-12.571429 7.55674,-16.527646 4.56847,-3.748592 11.12134,-4.76329 16.67327,-2.842061 3.95152,1.396346 6.90481,4.800608 8.3918,8.644407 1.549,3.84432 1.9899,7.98347 1.9461,12.07356 0,15.71055 -1e-5,31.42109 0,47.13164 7.60026,0 15.20052,0 22.80078,0 -0.0113,-16.52583 0.0225,-33.05201 -0.0169,-49.57763 -0.18101,-8.63733 -1.68635,-17.517694 -6.17456,-25.027836 -3.33724,-5.635553 -8.55393,-10.113148 -14.63374,-12.550643 -6.6077,-2.697057 -13.89322,-3.355118 -20.96458,-2.852958 -6.28943,0.461407 -12.54406,2.568827 -17.48572,6.557453 -3.08102,2.438226 -5.6657,5.458872 -7.81624,8.736773 -2.42275,-5.553591 -6.77827,-10.295093 -12.29043,-12.878886 -4.52731,-2.188379 -9.61791,-3.023051 -14.61777,-2.923848 z M 251.248,70.942052 c 0.0131,15.914364 -0.0262,31.829158 0.0197,47.743248 0.19851,9.20256 2.22534,18.60449 7.28152,26.41075 4.15336,6.51471 10.57559,11.58 17.96424,13.89826 6.55868,2.10685 13.66122,2.23321 20.39285,0.9265 6.35882,-1.25725 12.1822,-4.47651 17.10345,-8.6311 1.20038,-0.99906 2.35857,-2.04678 3.49024,-3.12305 0.45084,3.78259 0.90436,7.56486 1.35351,11.34766 6.80859,0 13.61719,0 20.42578,0 0,-29.70052 0,-59.40105 0,-89.101565 -7.54101,0 -15.08203,0 -22.62305,0 -0.0118,15.413671 0.0236,30.827865 -0.0177,46.241205 -0.15211,7.2275 -3.29214,14.5651 -9.11478,19.00998 -2.81267,2.16599 -6.17547,3.56516 -9.73709,4.04896 -3.95632,0.49044 -7.94062,0.12278 -11.63462,-1.38019 -4.80727,-1.91938 -8.50543,-6.08423 -10.28539,-10.8975 -1.59051,-4.03456 -1.91808,-8.42315 -1.8159,-12.7205 0,-14.767319 0,-29.534638 0,-44.301955 -7.60092,0 -15.20183,0 -22.80274,0 0,0.176432 0,0.352864 0,0.529297 z" />
  </g>
  <script
     id="mesh_polyfill"
     type="text/javascript">
!function(){const t=&quot;http://www.w3.org/2000/svg&quot;,e=&quot;http://www.w3.org/1999/xlink&quot;,s=&quot;http://www.w3.org/1999/xhtml&quot;,r=2;if(document.createElementNS(t,&quot;meshgradient&quot;).x)return;const n=(t,e,s,r)=&gt;{let n=new x(.5*(e.x+s.x),.5*(e.y+s.y)),o=new x(.5*(t.x+e.x),.5*(t.y+e.y)),i=new x(.5*(s.x+r.x),.5*(s.y+r.y)),a=new x(.5*(n.x+o.x),.5*(n.y+o.y)),h=new x(.5*(n.x+i.x),.5*(n.y+i.y)),l=new x(.5*(a.x+h.x),.5*(a.y+h.y));return[[t,o,a,l],[l,h,i,r]]},o=t=&gt;{let e=t[0].distSquared(t[1]),s=t[2].distSquared(t[3]),r=.25*t[0].distSquared(t[2]),n=.25*t[1].distSquared(t[3]),o=e&gt;s?e:s,i=r&gt;n?r:n;return 18*(o&gt;i?o:i)},i=(t,e)=&gt;Math.sqrt(t.distSquared(e)),a=(t,e)=&gt;t.scale(2/3).add(e.scale(1/3)),h=t=&gt;{let e,s,r,n,o,i,a,h=new g;return t.match(/(\w+\(\s*[^)]+\))+/g).forEach(t=&gt;{let l=t.match(/[\w.-]+/g),d=l.shift();switch(d){case&quot;translate&quot;:2===l.length?e=new g(1,0,0,1,l[0],l[1]):(console.error(&quot;mesh.js: translate does not have 2 arguments!&quot;),e=new g(1,0,0,1,0,0)),h=h.append(e);break;case&quot;scale&quot;:1===l.length?s=new g(l[0],0,0,l[0],0,0):2===l.length?s=new g(l[0],0,0,l[1],0,0):(console.error(&quot;mesh.js: scale does not have 1 or 2 arguments!&quot;),s=new g(1,0,0,1,0,0)),h=h.append(s);break;case&quot;rotate&quot;:if(3===l.length&amp;&amp;(e=new g(1,0,0,1,l[1],l[2]),h=h.append(e)),l[0]){r=l[0]*Math.PI/180;let t=Math.cos(r),e=Math.sin(r);Math.abs(t)&lt;1e-16&amp;&amp;(t=0),Math.abs(e)&lt;1e-16&amp;&amp;(e=0),a=new g(t,e,-e,t,0,0),h=h.append(a)}else console.error(&quot;math.js: No argument to rotate transform!&quot;);3===l.length&amp;&amp;(e=new g(1,0,0,1,-l[1],-l[2]),h=h.append(e));break;case&quot;skewX&quot;:l[0]?(r=l[0]*Math.PI/180,n=Math.tan(r),o=new g(1,0,n,1,0,0),h=h.append(o)):console.error(&quot;math.js: No argument to skewX transform!&quot;);break;case&quot;skewY&quot;:l[0]?(r=l[0]*Math.PI/180,n=Math.tan(r),i=new g(1,n,0,1,0,0),h=h.append(i)):console.error(&quot;math.js: No argument to skewY transform!&quot;);break;case&quot;matrix&quot;:6===l.length?h=h.append(new g(...l)):console.error(&quot;math.js: Incorrect number of arguments for matrix!&quot;);break;default:console.error(&quot;mesh.js: Unhandled transform type: &quot;+d)}}),h},l=t=&gt;{let e=[],s=t.split(/[ ,]+/);for(let t=0,r=s.length-1;t&lt;r;t+=2)e.push(new x(parseFloat(s[t]),parseFloat(s[t+1])));return e},d=(t,e)=&gt;{for(let s in e)t.setAttribute(s,e[s])},c=(t,e,s,r,n)=&gt;{let o,i,a=[0,0,0,0];for(let h=0;h&lt;3;++h)e[h]&lt;t[h]&amp;&amp;e[h]&lt;s[h]||t[h]&lt;e[h]&amp;&amp;s[h]&lt;e[h]?a[h]=0:(a[h]=.5*((e[h]-t[h])/r+(s[h]-e[h])/n),o=Math.abs(3*(e[h]-t[h])/r),i=Math.abs(3*(s[h]-e[h])/n),a[h]&gt;o?a[h]=o:a[h]&gt;i&amp;&amp;(a[h]=i));return a},u=[[1,0,0,0,0,0,0,0,0,0,0,0,0,0,0,0],[0,0,0,0,1,0,0,0,0,0,0,0,0,0,0,0],[-3,3,0,0,-2,-1,0,0,0,0,0,0,0,0,0,0],[2,-2,0,0,1,1,0,0,0,0,0,0,0,0,0,0],[0,0,0,0,0,0,0,0,1,0,0,0,0,0,0,0],[0,0,0,0,0,0,0,0,0,0,0,0,1,0,0,0],[0,0,0,0,0,0,0,0,-3,3,0,0,-2,-1,0,0],[0,0,0,0,0,0,0,0,2,-2,0,0,1,1,0,0],[-3,0,3,0,0,0,0,0,-2,0,-1,0,0,0,0,0],[0,0,0,0,-3,0,3,0,0,0,0,0,-2,0,-1,0],[9,-9,-9,9,6,3,-6,-3,6,-6,3,-3,4,2,2,1],[-6,6,6,-6,-3,-3,3,3,-4,4,-2,2,-2,-2,-1,-1],[2,0,-2,0,0,0,0,0,1,0,1,0,0,0,0,0],[0,0,0,0,2,0,-2,0,0,0,0,0,1,0,1,0],[-6,6,6,-6,-4,-2,4,2,-3,3,-3,3,-2,-1,-2,-1],[4,-4,-4,4,2,2,-2,-2,2,-2,2,-2,1,1,1,1]],f=t=&gt;{let e=[];for(let s=0;s&lt;16;++s){e[s]=0;for(let r=0;r&lt;16;++r)e[s]+=u[s][r]*t[r]}return e},p=(t,e,s)=&gt;{const r=e*e,n=s*s,o=e*e*e,i=s*s*s;return t[0]+t[1]*e+t[2]*r+t[3]*o+t[4]*s+t[5]*s*e+t[6]*s*r+t[7]*s*o+t[8]*n+t[9]*n*e+t[10]*n*r+t[11]*n*o+t[12]*i+t[13]*i*e+t[14]*i*r+t[15]*i*o},y=t=&gt;{let e=[],s=[],r=[];for(let s=0;s&lt;4;++s)e[s]=[],e[s][0]=n(t[0][s],t[1][s],t[2][s],t[3][s]),e[s][1]=[],e[s][1].push(...n(...e[s][0][0])),e[s][1].push(...n(...e[s][0][1])),e[s][2]=[],e[s][2].push(...n(...e[s][1][0])),e[s][2].push(...n(...e[s][1][1])),e[s][2].push(...n(...e[s][1][2])),e[s][2].push(...n(...e[s][1][3]));for(let t=0;t&lt;8;++t){s[t]=[];for(let r=0;r&lt;4;++r)s[t][r]=[],s[t][r][0]=n(e[0][2][t][r],e[1][2][t][r],e[2][2][t][r],e[3][2][t][r]),s[t][r][1]=[],s[t][r][1].push(...n(...s[t][r][0][0])),s[t][r][1].push(...n(...s[t][r][0][1])),s[t][r][2]=[],s[t][r][2].push(...n(...s[t][r][1][0])),s[t][r][2].push(...n(...s[t][r][1][1])),s[t][r][2].push(...n(...s[t][r][1][2])),s[t][r][2].push(...n(...s[t][r][1][3]))}for(let t=0;t&lt;8;++t){r[t]=[];for(let e=0;e&lt;8;++e)r[t][e]=[],r[t][e][0]=s[t][0][2][e],r[t][e][1]=s[t][1][2][e],r[t][e][2]=s[t][2][2][e],r[t][e][3]=s[t][3][2][e]}return r};class x{constructor(t,e){this.x=t||0,this.y=e||0}toString(){return`(x=${this.x}, y=${this.y})`}clone(){return new x(this.x,this.y)}add(t){return new x(this.x+t.x,this.y+t.y)}scale(t){return void 0===t.x?new x(this.x*t,this.y*t):new x(this.x*t.x,this.y*t.y)}distSquared(t){let e=this.x-t.x,s=this.y-t.y;return e*e+s*s}transform(t){let e=this.x*t.a+this.y*t.c+t.e,s=this.x*t.b+this.y*t.d+t.f;return new x(e,s)}}class g{constructor(t,e,s,r,n,o){void 0===t?(this.a=1,this.b=0,this.c=0,this.d=1,this.e=0,this.f=0):(this.a=t,this.b=e,this.c=s,this.d=r,this.e=n,this.f=o)}toString(){return`affine: ${this.a} ${this.c} ${this.e} \n       ${this.b} ${this.d} ${this.f}`}append(t){t instanceof g||console.error(&quot;mesh.js: argument to Affine.append is not affine!&quot;);let e=this.a*t.a+this.c*t.b,s=this.b*t.a+this.d*t.b,r=this.a*t.c+this.c*t.d,n=this.b*t.c+this.d*t.d,o=this.a*t.e+this.c*t.f+this.e,i=this.b*t.e+this.d*t.f+this.f;return new g(e,s,r,n,o,i)}}class w{constructor(t,e){this.nodes=t,this.colors=e}paintCurve(t,e){if(o(this.nodes)&gt;r){const s=n(...this.nodes);let r=[[],[]],o=[[],[]];for(let t=0;t&lt;4;++t)r[0][t]=this.colors[0][t],r[1][t]=(this.colors[0][t]+this.colors[1][t])/2,o[0][t]=r[1][t],o[1][t]=this.colors[1][t];let i=new w(s[0],r),a=new w(s[1],o);i.paintCurve(t,e),a.paintCurve(t,e)}else{let s=Math.round(this.nodes[0].x);if(s&gt;=0&amp;&amp;s&lt;e){let r=4*(~~this.nodes[0].y*e+s);t[r]=Math.round(this.colors[0][0]),t[r+1]=Math.round(this.colors[0][1]),t[r+2]=Math.round(this.colors[0][2]),t[r+3]=Math.round(this.colors[0][3])}}}}class m{constructor(t,e){this.nodes=t,this.colors=e}split(){let t=[[],[],[],[]],e=[[],[],[],[]],s=[[[],[]],[[],[]]],r=[[[],[]],[[],[]]];for(let s=0;s&lt;4;++s){const r=n(this.nodes[0][s],this.nodes[1][s],this.nodes[2][s],this.nodes[3][s]);t[0][s]=r[0][0],t[1][s]=r[0][1],t[2][s]=r[0][2],t[3][s]=r[0][3],e[0][s]=r[1][0],e[1][s]=r[1][1],e[2][s]=r[1][2],e[3][s]=r[1][3]}for(let t=0;t&lt;4;++t)s[0][0][t]=this.colors[0][0][t],s[0][1][t]=this.colors[0][1][t],s[1][0][t]=(this.colors[0][0][t]+this.colors[1][0][t])/2,s[1][1][t]=(this.colors[0][1][t]+this.colors[1][1][t])/2,r[0][0][t]=s[1][0][t],r[0][1][t]=s[1][1][t],r[1][0][t]=this.colors[1][0][t],r[1][1][t]=this.colors[1][1][t];return[new m(t,s),new m(e,r)]}paint(t,e){let s,n=!1;for(let t=0;t&lt;4;++t)if((s=o([this.nodes[0][t],this.nodes[1][t],this.nodes[2][t],this.nodes[3][t]]))&gt;r){n=!0;break}if(n){let s=this.split();s[0].paint(t,e),s[1].paint(t,e)}else{new w([...this.nodes[0]],[...this.colors[0]]).paintCurve(t,e)}}}class b{constructor(t){this.readMesh(t),this.type=t.getAttribute(&quot;type&quot;)||&quot;bilinear&quot;}readMesh(t){let e=[[]],s=[[]],r=Number(t.getAttribute(&quot;x&quot;)),n=Number(t.getAttribute(&quot;y&quot;));e[0][0]=new x(r,n);let o=t.children;for(let t=0,r=o.length;t&lt;r;++t){e[3*t+1]=[],e[3*t+2]=[],e[3*t+3]=[],s[t+1]=[];let r=o[t].children;for(let n=0,o=r.length;n&lt;o;++n){let o=r[n].children;for(let r=0,i=o.length;r&lt;i;++r){let i=r;0!==t&amp;&amp;++i;let h,d=o[r].getAttribute(&quot;path&quot;),c=&quot;l&quot;;null!=d&amp;&amp;(c=(h=d.match(/\s*([lLcC])\s*(.*)/))[1]);let u=l(h[2]);switch(c){case&quot;l&quot;:0===i?(e[3*t][3*n+3]=u[0].add(e[3*t][3*n]),e[3*t][3*n+1]=a(e[3*t][3*n],e[3*t][3*n+3]),e[3*t][3*n+2]=a(e[3*t][3*n+3],e[3*t][3*n])):1===i?(e[3*t+3][3*n+3]=u[0].add(e[3*t][3*n+3]),e[3*t+1][3*n+3]=a(e[3*t][3*n+3],e[3*t+3][3*n+3]),e[3*t+2][3*n+3]=a(e[3*t+3][3*n+3],e[3*t][3*n+3])):2===i?(0===n&amp;&amp;(e[3*t+3][3*n+0]=u[0].add(e[3*t+3][3*n+3])),e[3*t+3][3*n+1]=a(e[3*t+3][3*n],e[3*t+3][3*n+3]),e[3*t+3][3*n+2]=a(e[3*t+3][3*n+3],e[3*t+3][3*n])):(e[3*t+1][3*n]=a(e[3*t][3*n],e[3*t+3][3*n]),e[3*t+2][3*n]=a(e[3*t+3][3*n],e[3*t][3*n]));break;case&quot;L&quot;:0===i?(e[3*t][3*n+3]=u[0],e[3*t][3*n+1]=a(e[3*t][3*n],e[3*t][3*n+3]),e[3*t][3*n+2]=a(e[3*t][3*n+3],e[3*t][3*n])):1===i?(e[3*t+3][3*n+3]=u[0],e[3*t+1][3*n+3]=a(e[3*t][3*n+3],e[3*t+3][3*n+3]),e[3*t+2][3*n+3]=a(e[3*t+3][3*n+3],e[3*t][3*n+3])):2===i?(0===n&amp;&amp;(e[3*t+3][3*n+0]=u[0]),e[3*t+3][3*n+1]=a(e[3*t+3][3*n],e[3*t+3][3*n+3]),e[3*t+3][3*n+2]=a(e[3*t+3][3*n+3],e[3*t+3][3*n])):(e[3*t+1][3*n]=a(e[3*t][3*n],e[3*t+3][3*n]),e[3*t+2][3*n]=a(e[3*t+3][3*n],e[3*t][3*n]));break;case&quot;c&quot;:0===i?(e[3*t][3*n+1]=u[0].add(e[3*t][3*n]),e[3*t][3*n+2]=u[1].add(e[3*t][3*n]),e[3*t][3*n+3]=u[2].add(e[3*t][3*n])):1===i?(e[3*t+1][3*n+3]=u[0].add(e[3*t][3*n+3]),e[3*t+2][3*n+3]=u[1].add(e[3*t][3*n+3]),e[3*t+3][3*n+3]=u[2].add(e[3*t][3*n+3])):2===i?(e[3*t+3][3*n+2]=u[0].add(e[3*t+3][3*n+3]),e[3*t+3][3*n+1]=u[1].add(e[3*t+3][3*n+3]),0===n&amp;&amp;(e[3*t+3][3*n+0]=u[2].add(e[3*t+3][3*n+3]))):(e[3*t+2][3*n]=u[0].add(e[3*t+3][3*n]),e[3*t+1][3*n]=u[1].add(e[3*t+3][3*n]));break;case&quot;C&quot;:0===i?(e[3*t][3*n+1]=u[0],e[3*t][3*n+2]=u[1],e[3*t][3*n+3]=u[2]):1===i?(e[3*t+1][3*n+3]=u[0],e[3*t+2][3*n+3]=u[1],e[3*t+3][3*n+3]=u[2]):2===i?(e[3*t+3][3*n+2]=u[0],e[3*t+3][3*n+1]=u[1],0===n&amp;&amp;(e[3*t+3][3*n+0]=u[2])):(e[3*t+2][3*n]=u[0],e[3*t+1][3*n]=u[1]);break;default:console.error(&quot;mesh.js: &quot;+c+&quot; invalid path type.&quot;)}if(0===t&amp;&amp;0===n||r&gt;0){let e=window.getComputedStyle(o[r]).stopColor.match(/^rgb\s*\(\s*(\d+)\s*,\s*(\d+)\s*,\s*(\d+)\s*\)$/i),a=window.getComputedStyle(o[r]).stopOpacity,h=255;a&amp;&amp;(h=Math.floor(255*a)),e&amp;&amp;(0===i?(s[t][n]=[],s[t][n][0]=Math.floor(e[1]),s[t][n][1]=Math.floor(e[2]),s[t][n][2]=Math.floor(e[3]),s[t][n][3]=h):1===i?(s[t][n+1]=[],s[t][n+1][0]=Math.floor(e[1]),s[t][n+1][1]=Math.floor(e[2]),s[t][n+1][2]=Math.floor(e[3]),s[t][n+1][3]=h):2===i?(s[t+1][n+1]=[],s[t+1][n+1][0]=Math.floor(e[1]),s[t+1][n+1][1]=Math.floor(e[2]),s[t+1][n+1][2]=Math.floor(e[3]),s[t+1][n+1][3]=h):3===i&amp;&amp;(s[t+1][n]=[],s[t+1][n][0]=Math.floor(e[1]),s[t+1][n][1]=Math.floor(e[2]),s[t+1][n][2]=Math.floor(e[3]),s[t+1][n][3]=h))}}e[3*t+1][3*n+1]=new x,e[3*t+1][3*n+2]=new x,e[3*t+2][3*n+1]=new x,e[3*t+2][3*n+2]=new x,e[3*t+1][3*n+1].x=(-4*e[3*t][3*n].x+6*(e[3*t][3*n+1].x+e[3*t+1][3*n].x)+-2*(e[3*t][3*n+3].x+e[3*t+3][3*n].x)+3*(e[3*t+3][3*n+1].x+e[3*t+1][3*n+3].x)+-1*e[3*t+3][3*n+3].x)/9,e[3*t+1][3*n+2].x=(-4*e[3*t][3*n+3].x+6*(e[3*t][3*n+2].x+e[3*t+1][3*n+3].x)+-2*(e[3*t][3*n].x+e[3*t+3][3*n+3].x)+3*(e[3*t+3][3*n+2].x+e[3*t+1][3*n].x)+-1*e[3*t+3][3*n].x)/9,e[3*t+2][3*n+1].x=(-4*e[3*t+3][3*n].x+6*(e[3*t+3][3*n+1].x+e[3*t+2][3*n].x)+-2*(e[3*t+3][3*n+3].x+e[3*t][3*n].x)+3*(e[3*t][3*n+1].x+e[3*t+2][3*n+3].x)+-1*e[3*t][3*n+3].x)/9,e[3*t+2][3*n+2].x=(-4*e[3*t+3][3*n+3].x+6*(e[3*t+3][3*n+2].x+e[3*t+2][3*n+3].x)+-2*(e[3*t+3][3*n].x+e[3*t][3*n+3].x)+3*(e[3*t][3*n+2].x+e[3*t+2][3*n].x)+-1*e[3*t][3*n].x)/9,e[3*t+1][3*n+1].y=(-4*e[3*t][3*n].y+6*(e[3*t][3*n+1].y+e[3*t+1][3*n].y)+-2*(e[3*t][3*n+3].y+e[3*t+3][3*n].y)+3*(e[3*t+3][3*n+1].y+e[3*t+1][3*n+3].y)+-1*e[3*t+3][3*n+3].y)/9,e[3*t+1][3*n+2].y=(-4*e[3*t][3*n+3].y+6*(e[3*t][3*n+2].y+e[3*t+1][3*n+3].y)+-2*(e[3*t][3*n].y+e[3*t+3][3*n+3].y)+3*(e[3*t+3][3*n+2].y+e[3*t+1][3*n].y)+-1*e[3*t+3][3*n].y)/9,e[3*t+2][3*n+1].y=(-4*e[3*t+3][3*n].y+6*(e[3*t+3][3*n+1].y+e[3*t+2][3*n].y)+-2*(e[3*t+3][3*n+3].y+e[3*t][3*n].y)+3*(e[3*t][3*n+1].y+e[3*t+2][3*n+3].y)+-1*e[3*t][3*n+3].y)/9,e[3*t+2][3*n+2].y=(-4*e[3*t+3][3*n+3].y+6*(e[3*t+3][3*n+2].y+e[3*t+2][3*n+3].y)+-2*(e[3*t+3][3*n].y+e[3*t][3*n+3].y)+3*(e[3*t][3*n+2].y+e[3*t+2][3*n].y)+-1*e[3*t][3*n].y)/9}}this.nodes=e,this.colors=s}paintMesh(t,e){let s=(this.nodes.length-1)/3,r=(this.nodes[0].length-1)/3;if(&quot;bilinear&quot;===this.type||s&lt;2||r&lt;2){let n;for(let o=0;o&lt;s;++o)for(let s=0;s&lt;r;++s){let r=[];for(let t=3*o,e=3*o+4;t&lt;e;++t)r.push(this.nodes[t].slice(3*s,3*s+4));let i=[];i.push(this.colors[o].slice(s,s+2)),i.push(this.colors[o+1].slice(s,s+2)),(n=new m(r,i)).paint(t,e)}}else{let n,o,a,h,l,d,u;const x=s,g=r;s++,r++;let w=new Array(s);for(let t=0;t&lt;s;++t){w[t]=new Array(r);for(let e=0;e&lt;r;++e)w[t][e]=[],w[t][e][0]=this.nodes[3*t][3*e],w[t][e][1]=this.colors[t][e]}for(let t=0;t&lt;s;++t)for(let e=0;e&lt;r;++e)0!==t&amp;&amp;t!==x&amp;&amp;(n=i(w[t-1][e][0],w[t][e][0]),o=i(w[t+1][e][0],w[t][e][0]),w[t][e][2]=c(w[t-1][e][1],w[t][e][1],w[t+1][e][1],n,o)),0!==e&amp;&amp;e!==g&amp;&amp;(n=i(w[t][e-1][0],w[t][e][0]),o=i(w[t][e+1][0],w[t][e][0]),w[t][e][3]=c(w[t][e-1][1],w[t][e][1],w[t][e+1][1],n,o));for(let t=0;t&lt;r;++t){w[0][t][2]=[],w[x][t][2]=[];for(let e=0;e&lt;4;++e)n=i(w[1][t][0],w[0][t][0]),o=i(w[x][t][0],w[x-1][t][0]),w[0][t][2][e]=n&gt;0?2*(w[1][t][1][e]-w[0][t][1][e])/n-w[1][t][2][e]:0,w[x][t][2][e]=o&gt;0?2*(w[x][t][1][e]-w[x-1][t][1][e])/o-w[x-1][t][2][e]:0}for(let t=0;t&lt;s;++t){w[t][0][3]=[],w[t][g][3]=[];for(let e=0;e&lt;4;++e)n=i(w[t][1][0],w[t][0][0]),o=i(w[t][g][0],w[t][g-1][0]),w[t][0][3][e]=n&gt;0?2*(w[t][1][1][e]-w[t][0][1][e])/n-w[t][1][3][e]:0,w[t][g][3][e]=o&gt;0?2*(w[t][g][1][e]-w[t][g-1][1][e])/o-w[t][g-1][3][e]:0}for(let s=0;s&lt;x;++s)for(let r=0;r&lt;g;++r){let n=i(w[s][r][0],w[s+1][r][0]),o=i(w[s][r+1][0],w[s+1][r+1][0]),c=i(w[s][r][0],w[s][r+1][0]),x=i(w[s+1][r][0],w[s+1][r+1][0]),g=[[],[],[],[]];for(let t=0;t&lt;4;++t){(d=[])[0]=w[s][r][1][t],d[1]=w[s+1][r][1][t],d[2]=w[s][r+1][1][t],d[3]=w[s+1][r+1][1][t],d[4]=w[s][r][2][t]*n,d[5]=w[s+1][r][2][t]*n,d[6]=w[s][r+1][2][t]*o,d[7]=w[s+1][r+1][2][t]*o,d[8]=w[s][r][3][t]*c,d[9]=w[s+1][r][3][t]*x,d[10]=w[s][r+1][3][t]*c,d[11]=w[s+1][r+1][3][t]*x,d[12]=0,d[13]=0,d[14]=0,d[15]=0,u=f(d);for(let e=0;e&lt;9;++e){g[t][e]=[];for(let s=0;s&lt;9;++s)g[t][e][s]=p(u,e/8,s/8),g[t][e][s]&gt;255?g[t][e][s]=255:g[t][e][s]&lt;0&amp;&amp;(g[t][e][s]=0)}}h=[];for(let t=3*s,e=3*s+4;t&lt;e;++t)h.push(this.nodes[t].slice(3*r,3*r+4));l=y(h);for(let s=0;s&lt;8;++s)for(let r=0;r&lt;8;++r)(a=new m(l[s][r],[[[g[0][s][r],g[1][s][r],g[2][s][r],g[3][s][r]],[g[0][s][r+1],g[1][s][r+1],g[2][s][r+1],g[3][s][r+1]]],[[g[0][s+1][r],g[1][s+1][r],g[2][s+1][r],g[3][s+1][r]],[g[0][s+1][r+1],g[1][s+1][r+1],g[2][s+1][r+1],g[3][s+1][r+1]]]])).paint(t,e)}}}transform(t){if(t instanceof x)for(let e=0,s=this.nodes.length;e&lt;s;++e)for(let s=0,r=this.nodes[0].length;s&lt;r;++s)this.nodes[e][s]=this.nodes[e][s].add(t);else if(t instanceof g)for(let e=0,s=this.nodes.length;e&lt;s;++e)for(let s=0,r=this.nodes[0].length;s&lt;r;++s)this.nodes[e][s]=this.nodes[e][s].transform(t)}scale(t){for(let e=0,s=this.nodes.length;e&lt;s;++e)for(let s=0,r=this.nodes[0].length;s&lt;r;++s)this.nodes[e][s]=this.nodes[e][s].scale(t)}}document.querySelectorAll(&quot;rect,circle,ellipse,path,text&quot;).forEach((r,n)=&gt;{let o=r.getAttribute(&quot;id&quot;);o||(o=&quot;patchjs_shape&quot;+n,r.setAttribute(&quot;id&quot;,o));const i=r.style.fill.match(/^url\(\s*&quot;?\s*#([^\s&quot;]+)&quot;?\s*\)/),a=r.style.stroke.match(/^url\(\s*&quot;?\s*#([^\s&quot;]+)&quot;?\s*\)/);if(i&amp;&amp;i[1]){const a=document.getElementById(i[1]);if(a&amp;&amp;&quot;meshgradient&quot;===a.nodeName){const i=r.getBBox();let l=document.createElementNS(s,&quot;canvas&quot;);d(l,{width:i.width,height:i.height});const c=l.getContext(&quot;2d&quot;);let u=c.createImageData(i.width,i.height);const f=new b(a);&quot;objectBoundingBox&quot;===a.getAttribute(&quot;gradientUnits&quot;)&amp;&amp;f.scale(new x(i.width,i.height));const p=a.getAttribute(&quot;gradientTransform&quot;);null!=p&amp;&amp;f.transform(h(p)),&quot;userSpaceOnUse&quot;===a.getAttribute(&quot;gradientUnits&quot;)&amp;&amp;f.transform(new x(-i.x,-i.y)),f.paintMesh(u.data,l.width),c.putImageData(u,0,0);const y=document.createElementNS(t,&quot;image&quot;);d(y,{width:i.width,height:i.height,x:i.x,y:i.y});let g=l.toDataURL();y.setAttributeNS(e,&quot;xlink:href&quot;,g),r.parentNode.insertBefore(y,r),r.style.fill=&quot;none&quot;;const w=document.createElementNS(t,&quot;use&quot;);w.setAttributeNS(e,&quot;xlink:href&quot;,&quot;#&quot;+o);const m=&quot;patchjs_clip&quot;+n,M=document.createElementNS(t,&quot;clipPath&quot;);M.setAttribute(&quot;id&quot;,m),M.appendChild(w),r.parentElement.insertBefore(M,r),y.setAttribute(&quot;clip-path&quot;,&quot;url(#&quot;+m+&quot;)&quot;),u=null,l=null,g=null}}if(a&amp;&amp;a[1]){const o=document.getElementById(a[1]);if(o&amp;&amp;&quot;meshgradient&quot;===o.nodeName){const i=parseFloat(r.style.strokeWidth.slice(0,-2))*(parseFloat(r.style.strokeMiterlimit)||parseFloat(r.getAttribute(&quot;stroke-miterlimit&quot;))||1),a=r.getBBox(),l=Math.trunc(a.width+i),c=Math.trunc(a.height+i),u=Math.trunc(a.x-i/2),f=Math.trunc(a.y-i/2);let p=document.createElementNS(s,&quot;canvas&quot;);d(p,{width:l,height:c});const y=p.getContext(&quot;2d&quot;);let g=y.createImageData(l,c);const w=new b(o);&quot;objectBoundingBox&quot;===o.getAttribute(&quot;gradientUnits&quot;)&amp;&amp;w.scale(new x(l,c));const m=o.getAttribute(&quot;gradientTransform&quot;);null!=m&amp;&amp;w.transform(h(m)),&quot;userSpaceOnUse&quot;===o.getAttribute(&quot;gradientUnits&quot;)&amp;&amp;w.transform(new x(-u,-f)),w.paintMesh(g.data,p.width),y.putImageData(g,0,0);const M=document.createElementNS(t,&quot;image&quot;);d(M,{width:l,height:c,x:0,y:0});let S=p.toDataURL();M.setAttributeNS(e,&quot;xlink:href&quot;,S);const k=&quot;pattern_clip&quot;+n,A=document.createElementNS(t,&quot;pattern&quot;);d(A,{id:k,patternUnits:&quot;userSpaceOnUse&quot;,width:l,height:c,x:u,y:f}),A.appendChild(M),o.parentNode.appendChild(A),r.style.stroke=&quot;url(#&quot;+k+&quot;)&quot;,g=null,p=null,S=null}}})}();
</script>
</svg>
