<?xml version="1.0" encoding="UTF-8" standalone="no"?>
<!-- Created with Inkscape (http://www.inkscape.org/) -->

<svg
   width="200mm"
   height="200mm"
   viewBox="0 0 200 200"
   version="1.1"
   id="svg3705"
   enable-background="new"
   inkscape:version="1.1 (c68e22c387, 2021-05-23)"
   sodipodi:docname="EmbyLogo_Reconstruct_Step2_Outset_12.svg"
   xmlns:inkscape="http://www.inkscape.org/namespaces/inkscape"
   xmlns:sodipodi="http://sodipodi.sourceforge.net/DTD/sodipodi-0.dtd"
   xmlns="http://www.w3.org/2000/svg"
   xmlns:svg="http://www.w3.org/2000/svg"
   xmlns:rdf="http://www.w3.org/1999/02/22-rdf-syntax-ns#"
   xmlns:cc="http://creativecommons.org/ns#"
   xmlns:dc="http://purl.org/dc/elements/1.1/">
  <defs
     id="defs3699" />
  <sodipodi:namedview
     id="base"
     pagecolor="#ffffff"
     bordercolor="#666666"
     borderopacity="1.0"
     inkscape:pageopacity="0.0"
     inkscape:pageshadow="2"
     inkscape:zoom="1.1311654"
     inkscape:cx="415.05866"
     inkscape:cy="352.29154"
     inkscape:document-units="mm"
     inkscape:current-layer="layer1"
     showgrid="true"
     inkscape:snap-page="false"
     showguides="true"
     inkscape:measure-start="145,555"
     inkscape:measure-end="345,755"
     inkscape:window-width="1600"
     inkscape:window-height="1129"
     inkscape:window-x="1592"
     inkscape:window-y="-8"
     inkscape:window-maximized="1"
     inkscape:pagecheckerboard="0"
     inkscape:snap-global="false">
    <inkscape:grid
       type="xygrid"
       id="grid3719" />
  </sodipodi:namedview>
  <metadata
     id="metadata3702">
    <rdf:RDF>
      <cc:Work
         rdf:about="">
        <dc:format>image/svg+xml</dc:format>
        <dc:type
           rdf:resource="http://purl.org/dc/dcmitype/StillImage" />
      </cc:Work>
    </rdf:RDF>
  </metadata>
  <g
     inkscape:label="Squares"
     inkscape:groupmode="layer"
     id="layer1"
     style="display:inline;opacity:1"
     transform="translate(0,-97)">
    <rect
       id="rect3743"
       width="75"
       height="80"
       x="90"
       y="120"
       style="fill:#52b54b;fill-opacity:1;stroke-width:1.05394" />
    <rect
       id="rect4612"
       width="80"
       height="75"
       x="23"
       y="132"
       style="fill:#52b54b;fill-opacity:1;stroke-width:0.987475" />
    <rect
       style="fill:#51b54b;fill-opacity:1;stroke-width:0.987475"
       y="187"
       x="97"
       height="75"
       width="80"
       id="rect4614" />
    <rect
       style="fill:#52b54b;fill-opacity:1;stroke-width:0.987475"
       y="199"
       x="35"
       height="75"
       width="80"
       id="rect4636" />
    <path
       style="fill:#52b54b;fill-opacity:0"
       d="m 320.94536,668.36011 c -47.26163,-47.70966 -86.35149,-86.91229 -86.86633,-87.11695 -0.51485,-0.20466 -7.99989,6.68133 -16.63342,15.30221 L 201.74829,612.21969 101.31195,511.03121 C 46.071961,455.37754 0.93459702,409.62507 1.0066949,409.35906 c 0.072098,-0.26602 39.2220981,-39.22208 87.0000001,-86.56903 47.777905,-47.34694 87.036365,-86.49532 87.241025,-86.9964 0.20466,-0.50107 -6.76756,-8.06118 -15.49382,-16.80025 L 143.88796,203.10416 245.13103,101.86108 346.37411,0.61800388 434.86986,89.109523 l 88.49576,88.491517 15.45748,-15.43334 15.45747,-15.43334 87.29752,87.97172 c 48.01364,48.38445 93.14752,93.95869 100.29752,101.2761 l 13,13.30438 -80.38634,80.01607 -80.38634,80.01607 15.15591,15.17962 15.15592,15.17962 -108.43258,107.71867 c -59.63791,59.24526 -108.58422,107.71634 -108.76957,107.7135 -0.18535,-0.003 -39.00561,-39.04033 -86.26725,-86.75 z"
       id="path4638"
       inkscape:connector-curvature="0"
       transform="matrix(0.26458333,0,0,0.26458333,0,97)" />
  </g>
  <g
     inkscape:groupmode="layer"
     id="layer3"
     inkscape:label="Triangle">
    <path
       sodipodi:type="star"
       style="fill:#ffffff;fill-opacity:1;stroke:none;stroke-width:0.26458332;stroke-opacity:1"
       id="path4673"
       sodipodi:sides="3"
       sodipodi:cx="98.819153"
       sodipodi:cy="100.51667"
       sodipodi:r1="43.816311"
       sodipodi:r2="21.908155"
       sodipodi:arg1="2.0943951"
       sodipodi:arg2="3.1415927"
       inkscape:flatsided="false"
       inkscape:rounded="0"
       inkscape:randomized="0"
       d="m 76.910997,138.46271 0,-37.94604 0,-37.946038 32.862233,18.97302 32.86223,18.973018 -32.86223,18.97302 z"
       inkscape:transform-center-x="-10.954076"
       transform="matrix(1,0,0,0.99999899,0,-0.26256876)" />
  </g>
</svg>
